<mxfile modified="2023-10-13T04:12:44.070Z" host="app.diagrams.net" agent="Mozilla/5.0 (Windows NT 10.0; Win64; x64) AppleWebKit/537.36 (KHTML, like Gecko) Chrome/117.0.0.0 Safari/537.36" etag="7XSI2ldzPtfilmyAUcxa" version="22.0.4" type="github">
  <diagram id="Ht1M8jgEwFfnCIfOTk4-" name="Page-1">
    <mxGraphModel dx="1354" dy="1562" grid="1" gridSize="10" guides="1" tooltips="1" connect="1" arrows="1" fold="1" page="1" pageScale="1" pageWidth="1169" pageHeight="827" math="0" shadow="0">
      <root>
        <mxCell id="0" />
        <mxCell id="1" parent="0" />
        <mxCell id="UEzPUAAOIrF-is8g5C7q-164" style="edgeStyle=orthogonalEdgeStyle;rounded=0;orthogonalLoop=1;jettySize=auto;html=1;startArrow=none;startFill=0;endArrow=open;endFill=0;strokeColor=#808080;strokeWidth=2;" parent="1" source="UEzPUAAOIrF-is8g5C7q-146" target="UEzPUAAOIrF-is8g5C7q-148" edge="1">
          <mxGeometry relative="1" as="geometry">
            <Array as="points">
              <mxPoint x="237" y="-616" />
              <mxPoint x="237" y="-525" />
            </Array>
          </mxGeometry>
        </mxCell>
        <mxCell id="UEzPUAAOIrF-is8g5C7q-165" style="edgeStyle=orthogonalEdgeStyle;rounded=0;orthogonalLoop=1;jettySize=auto;html=1;startArrow=none;startFill=0;endArrow=open;endFill=0;strokeColor=#808080;strokeWidth=2;" parent="1" source="UEzPUAAOIrF-is8g5C7q-147" target="UEzPUAAOIrF-is8g5C7q-148" edge="1">
          <mxGeometry relative="1" as="geometry">
            <Array as="points">
              <mxPoint x="237" y="-456" />
              <mxPoint x="237" y="-525" />
            </Array>
          </mxGeometry>
        </mxCell>
        <mxCell id="UEzPUAAOIrF-is8g5C7q-162" style="edgeStyle=orthogonalEdgeStyle;rounded=0;orthogonalLoop=1;jettySize=auto;html=1;startArrow=none;startFill=0;endArrow=open;endFill=0;strokeColor=#808080;strokeWidth=2;" parent="1" source="UEzPUAAOIrF-is8g5C7q-148" target="UEzPUAAOIrF-is8g5C7q-144" edge="1">
          <mxGeometry relative="1" as="geometry">
            <Array as="points">
              <mxPoint x="325" y="-674" />
              <mxPoint x="295" y="-674" />
            </Array>
          </mxGeometry>
        </mxCell>
        <mxCell id="UEzPUAAOIrF-is8g5C7q-163" style="edgeStyle=orthogonalEdgeStyle;rounded=0;orthogonalLoop=1;jettySize=auto;html=1;startArrow=none;startFill=0;endArrow=open;endFill=0;strokeColor=#808080;strokeWidth=2;" parent="1" source="UEzPUAAOIrF-is8g5C7q-148" target="UEzPUAAOIrF-is8g5C7q-145" edge="1">
          <mxGeometry relative="1" as="geometry">
            <Array as="points">
              <mxPoint x="325" y="-674" />
              <mxPoint x="455" y="-674" />
            </Array>
          </mxGeometry>
        </mxCell>
        <mxCell id="UEzPUAAOIrF-is8g5C7q-166" style="edgeStyle=orthogonalEdgeStyle;rounded=0;orthogonalLoop=1;jettySize=auto;html=1;startArrow=none;startFill=0;endArrow=open;endFill=0;strokeColor=#808080;strokeWidth=2;" parent="1" source="UEzPUAAOIrF-is8g5C7q-148" target="UEzPUAAOIrF-is8g5C7q-150" edge="1">
          <mxGeometry relative="1" as="geometry" />
        </mxCell>
        <mxCell id="UEzPUAAOIrF-is8g5C7q-167" style="edgeStyle=orthogonalEdgeStyle;rounded=0;orthogonalLoop=1;jettySize=auto;html=1;startArrow=none;startFill=0;endArrow=open;endFill=0;strokeColor=#808080;strokeWidth=2;" parent="1" source="UEzPUAAOIrF-is8g5C7q-148" target="UEzPUAAOIrF-is8g5C7q-154" edge="1">
          <mxGeometry relative="1" as="geometry">
            <mxPoint x="786" y="-525" as="targetPoint" />
            <Array as="points">
              <mxPoint x="686" y="-525" />
              <mxPoint x="686" y="-525" />
            </Array>
          </mxGeometry>
        </mxCell>
        <mxCell id="UEzPUAAOIrF-is8g5C7q-168" style="edgeStyle=orthogonalEdgeStyle;rounded=0;orthogonalLoop=1;jettySize=auto;html=1;startArrow=none;startFill=0;endArrow=open;endFill=0;strokeColor=#808080;strokeWidth=2;" parent="1" source="UEzPUAAOIrF-is8g5C7q-148" target="UEzPUAAOIrF-is8g5C7q-149" edge="1">
          <mxGeometry relative="1" as="geometry">
            <Array as="points">
              <mxPoint x="346" y="-643" />
            </Array>
          </mxGeometry>
        </mxCell>
        <mxCell id="UEzPUAAOIrF-is8g5C7q-170" style="edgeStyle=orthogonalEdgeStyle;rounded=0;orthogonalLoop=1;jettySize=auto;html=1;startArrow=none;startFill=0;endArrow=open;endFill=0;strokeColor=#808080;strokeWidth=2;" parent="1" source="UEzPUAAOIrF-is8g5C7q-150" target="UEzPUAAOIrF-is8g5C7q-151" edge="1">
          <mxGeometry relative="1" as="geometry" />
        </mxCell>
        <mxCell id="UEzPUAAOIrF-is8g5C7q-171" style="edgeStyle=orthogonalEdgeStyle;rounded=0;orthogonalLoop=1;jettySize=auto;html=1;startArrow=none;startFill=0;endArrow=open;endFill=0;strokeColor=#808080;strokeWidth=2;" parent="1" source="UEzPUAAOIrF-is8g5C7q-151" target="UEzPUAAOIrF-is8g5C7q-152" edge="1">
          <mxGeometry relative="1" as="geometry" />
        </mxCell>
        <mxCell id="UEzPUAAOIrF-is8g5C7q-169" style="edgeStyle=orthogonalEdgeStyle;rounded=0;orthogonalLoop=1;jettySize=auto;html=1;startArrow=none;startFill=0;endArrow=open;endFill=0;strokeColor=#808080;strokeWidth=2;" parent="1" source="UEzPUAAOIrF-is8g5C7q-153" target="UEzPUAAOIrF-is8g5C7q-148" edge="1">
          <mxGeometry relative="1" as="geometry">
            <Array as="points">
              <mxPoint x="346" y="-394" />
            </Array>
          </mxGeometry>
        </mxCell>
        <mxCell id="UEzPUAAOIrF-is8g5C7q-172" style="edgeStyle=orthogonalEdgeStyle;rounded=0;orthogonalLoop=1;jettySize=auto;html=1;startArrow=none;startFill=0;endArrow=open;endFill=0;strokeColor=#808080;strokeWidth=2;" parent="1" source="UEzPUAAOIrF-is8g5C7q-156" target="UEzPUAAOIrF-is8g5C7q-158" edge="1">
          <mxGeometry relative="1" as="geometry">
            <Array as="points">
              <mxPoint x="950" y="-243" />
              <mxPoint x="950" y="-186" />
            </Array>
          </mxGeometry>
        </mxCell>
        <mxCell id="UEzPUAAOIrF-is8g5C7q-173" style="edgeStyle=orthogonalEdgeStyle;rounded=0;orthogonalLoop=1;jettySize=auto;html=1;startArrow=none;startFill=0;endArrow=open;endFill=0;strokeColor=#808080;strokeWidth=2;" parent="1" source="UEzPUAAOIrF-is8g5C7q-157" target="UEzPUAAOIrF-is8g5C7q-158" edge="1">
          <mxGeometry relative="1" as="geometry">
            <Array as="points">
              <mxPoint x="950" y="-135" />
              <mxPoint x="950" y="-186" />
            </Array>
          </mxGeometry>
        </mxCell>
        <mxCell id="UEzPUAAOIrF-is8g5C7q-174" style="edgeStyle=orthogonalEdgeStyle;rounded=0;orthogonalLoop=1;jettySize=auto;html=1;startArrow=none;startFill=0;endArrow=open;endFill=0;strokeColor=#808080;strokeWidth=2;" parent="1" source="UEzPUAAOIrF-is8g5C7q-161" target="UEzPUAAOIrF-is8g5C7q-153" edge="1">
          <mxGeometry relative="1" as="geometry">
            <Array as="points">
              <mxPoint x="1025" y="-394" />
            </Array>
          </mxGeometry>
        </mxCell>
        <mxCell id="UEzPUAAOIrF-is8g5C7q-144" value="Amazon CloudWatch" style="outlineConnect=0;fontColor=#232F3E;gradientColor=#F34482;gradientDirection=north;fillColor=#BC1356;strokeColor=#ffffff;dashed=0;verticalLabelPosition=bottom;verticalAlign=top;align=center;html=1;fontSize=12;fontStyle=0;aspect=fixed;shape=mxgraph.aws4.resourceIcon;resIcon=mxgraph.aws4.cloudwatch;labelBackgroundColor=#ffffff;spacingTop=5;" parent="1" vertex="1">
          <mxGeometry x="256" y="-794" width="78" height="78" as="geometry" />
        </mxCell>
        <mxCell id="UEzPUAAOIrF-is8g5C7q-145" value="Amazon SNS" style="outlineConnect=0;fontColor=#232F3E;gradientColor=#F34482;gradientDirection=north;fillColor=#BC1356;strokeColor=#ffffff;dashed=0;verticalLabelPosition=bottom;verticalAlign=top;align=center;html=1;fontSize=12;fontStyle=0;aspect=fixed;shape=mxgraph.aws4.resourceIcon;resIcon=mxgraph.aws4.sns;labelBackgroundColor=#ffffff;spacingTop=5;" parent="1" vertex="1">
          <mxGeometry x="416" y="-794" width="78" height="78" as="geometry" />
        </mxCell>
        <mxCell id="UEzPUAAOIrF-is8g5C7q-146" value="Amazon&lt;br&gt;CloudWatch Event&lt;br&gt;" style="outlineConnect=0;fontColor=#232F3E;gradientColor=none;fillColor=#BC1356;strokeColor=none;dashed=0;verticalLabelPosition=bottom;verticalAlign=top;align=center;html=1;fontSize=12;fontStyle=0;aspect=fixed;pointerEvents=1;shape=mxgraph.aws4.event_time_based;labelBackgroundColor=#ffffff;" parent="1" vertex="1">
          <mxGeometry x="46" y="-654" width="78" height="78" as="geometry" />
        </mxCell>
        <mxCell id="UEzPUAAOIrF-is8g5C7q-147" value="Amazon&lt;br&gt;CloudWatch Event&lt;br&gt;" style="outlineConnect=0;fontColor=#232F3E;gradientColor=none;fillColor=#BC1356;strokeColor=none;dashed=0;verticalLabelPosition=bottom;verticalAlign=top;align=center;html=1;fontSize=12;fontStyle=0;aspect=fixed;pointerEvents=1;shape=mxgraph.aws4.event_event_based;labelBackgroundColor=#ffffff;" parent="1" vertex="1">
          <mxGeometry x="46" y="-494" width="78" height="78" as="geometry" />
        </mxCell>
        <mxCell id="UEzPUAAOIrF-is8g5C7q-148" value="Lambda" style="outlineConnect=0;fontColor=#232F3E;gradientColor=#F78E04;gradientDirection=north;fillColor=#D05C17;strokeColor=#ffffff;dashed=0;verticalLabelPosition=bottom;verticalAlign=top;align=center;html=1;fontSize=12;fontStyle=0;aspect=fixed;shape=mxgraph.aws4.resourceIcon;resIcon=mxgraph.aws4.lambda;labelBackgroundColor=#ffffff;spacingTop=8;" parent="1" vertex="1">
          <mxGeometry x="286" y="-564" width="78" height="78" as="geometry" />
        </mxCell>
        <mxCell id="UEzPUAAOIrF-is8g5C7q-149" value="Amazon DynamoDB" style="outlineConnect=0;fontColor=#232F3E;gradientColor=#4D72F3;gradientDirection=north;fillColor=#3334B9;strokeColor=#ffffff;dashed=0;verticalLabelPosition=bottom;verticalAlign=top;align=center;html=1;fontSize=12;fontStyle=0;aspect=fixed;shape=mxgraph.aws4.resourceIcon;resIcon=mxgraph.aws4.dynamodb;labelBackgroundColor=#ffffff;" parent="1" vertex="1">
          <mxGeometry x="616" y="-682.5" width="78" height="78" as="geometry" />
        </mxCell>
        <mxCell id="UEzPUAAOIrF-is8g5C7q-150" value="Amazon SQS Queue" style="outlineConnect=0;fontColor=#232F3E;gradientColor=none;fillColor=#BC1356;strokeColor=none;dashed=0;verticalLabelPosition=bottom;verticalAlign=top;align=center;html=1;fontSize=12;fontStyle=0;aspect=fixed;pointerEvents=1;shape=mxgraph.aws4.queue;labelBackgroundColor=#ffffff;" parent="1" vertex="1">
          <mxGeometry x="286" y="-384" width="78" height="47" as="geometry" />
        </mxCell>
        <mxCell id="UEzPUAAOIrF-is8g5C7q-151" value="Lambda&lt;br&gt;Function&lt;br&gt;" style="outlineConnect=0;fontColor=#232F3E;gradientColor=none;fillColor=#D05C17;strokeColor=none;dashed=0;verticalLabelPosition=bottom;verticalAlign=top;align=center;html=1;fontSize=12;fontStyle=0;aspect=fixed;pointerEvents=1;shape=mxgraph.aws4.lambda_function;labelBackgroundColor=#ffffff;" parent="1" vertex="1">
          <mxGeometry x="286" y="-244" width="78" height="78" as="geometry" />
        </mxCell>
        <mxCell id="UEzPUAAOIrF-is8g5C7q-152" value="Amazon CloudWatch" style="outlineConnect=0;fontColor=#232F3E;gradientColor=#F34482;gradientDirection=north;fillColor=#BC1356;strokeColor=#ffffff;dashed=0;verticalLabelPosition=bottom;verticalAlign=top;align=center;html=1;fontSize=12;fontStyle=0;aspect=fixed;shape=mxgraph.aws4.resourceIcon;resIcon=mxgraph.aws4.cloudwatch;labelBackgroundColor=#ffffff;" parent="1" vertex="1">
          <mxGeometry x="486" y="-244" width="78" height="78" as="geometry" />
        </mxCell>
        <mxCell id="UEzPUAAOIrF-is8g5C7q-153" value="Amazon SNS&lt;br&gt;Topic&lt;br&gt;" style="outlineConnect=0;fontColor=#232F3E;gradientColor=none;fillColor=#BC1356;strokeColor=none;dashed=0;verticalLabelPosition=bottom;verticalAlign=top;align=center;html=1;fontSize=12;fontStyle=0;aspect=fixed;pointerEvents=1;shape=mxgraph.aws4.topic;labelBackgroundColor=#ffffff;" parent="1" vertex="1">
          <mxGeometry x="607" y="-428" width="78" height="67" as="geometry" />
        </mxCell>
        <mxCell id="UEzPUAAOIrF-is8g5C7q-154" value="AWS Cloud" style="points=[[0,0],[0.25,0],[0.5,0],[0.75,0],[1,0],[1,0.25],[1,0.5],[1,0.75],[1,1],[0.75,1],[0.5,1],[0.25,1],[0,1],[0,0.75],[0,0.5],[0,0.25]];outlineConnect=0;gradientColor=none;html=1;whiteSpace=wrap;fontSize=12;fontStyle=0;shape=mxgraph.aws4.group;grIcon=mxgraph.aws4.group_aws_cloud_alt;strokeColor=#232F3E;fillColor=none;verticalAlign=top;align=left;spacingLeft=30;fontColor=#232F3E;dashed=0;labelBackgroundColor=#ffffff;container=1;pointerEvents=0;collapsible=0;recursiveResize=0;" parent="1" vertex="1">
          <mxGeometry x="796" y="-734" width="320" height="311" as="geometry" />
        </mxCell>
        <mxCell id="UEzPUAAOIrF-is8g5C7q-155" value="" style="rounded=0;whiteSpace=wrap;html=1;dashed=1;labelBackgroundColor=#ffffff;fillColor=none;gradientColor=none;container=1;pointerEvents=0;collapsible=0;recursiveResize=0;" parent="1" vertex="1">
          <mxGeometry x="721" y="-344" width="185" height="310" as="geometry" />
        </mxCell>
        <mxCell id="UEzPUAAOIrF-is8g5C7q-156" value="Template" style="outlineConnect=0;fontColor=#232F3E;gradientColor=none;fillColor=#BC1356;strokeColor=none;dashed=0;verticalLabelPosition=bottom;verticalAlign=top;align=center;html=1;fontSize=12;fontStyle=0;aspect=fixed;pointerEvents=1;shape=mxgraph.aws4.template;labelBackgroundColor=#ffffff;" parent="1" vertex="1">
          <mxGeometry x="786" y="-282" width="65" height="78" as="geometry" />
        </mxCell>
        <mxCell id="UEzPUAAOIrF-is8g5C7q-157" value="Template" style="outlineConnect=0;fontColor=#232F3E;gradientColor=none;fillColor=#BC1356;strokeColor=none;dashed=0;verticalLabelPosition=bottom;verticalAlign=top;align=center;html=1;fontSize=12;fontStyle=0;aspect=fixed;pointerEvents=1;shape=mxgraph.aws4.template;labelBackgroundColor=#ffffff;" parent="1" vertex="1">
          <mxGeometry x="786" y="-174" width="65" height="78" as="geometry" />
        </mxCell>
        <mxCell id="UEzPUAAOIrF-is8g5C7q-158" value="Amazon S3&lt;br&gt;Bucket&lt;br&gt;" style="outlineConnect=0;fontColor=#232F3E;gradientColor=none;fillColor=#277116;strokeColor=none;dashed=0;verticalLabelPosition=bottom;verticalAlign=top;align=center;html=1;fontSize=12;fontStyle=0;aspect=fixed;pointerEvents=1;shape=mxgraph.aws4.bucket_with_objects;labelBackgroundColor=#ffffff;" parent="1" vertex="1">
          <mxGeometry x="1008.5" y="-225" width="75" height="78" as="geometry" />
        </mxCell>
        <mxCell id="UEzPUAAOIrF-is8g5C7q-159" value="Cross-Account&lt;br&gt;Role&lt;br&gt;" style="outlineConnect=0;fontColor=#232F3E;gradientColor=none;fillColor=#C7131F;strokeColor=none;dashed=0;verticalLabelPosition=bottom;verticalAlign=top;align=center;html=1;fontSize=12;fontStyle=0;aspect=fixed;pointerEvents=1;shape=mxgraph.aws4.role;labelBackgroundColor=#ffffff;" parent="1" vertex="1">
          <mxGeometry x="851" y="-576" width="78" height="44" as="geometry" />
        </mxCell>
        <mxCell id="UEzPUAAOIrF-is8g5C7q-160" value="CloudWatch&lt;br&gt;Event&lt;br&gt;" style="outlineConnect=0;fontColor=#232F3E;gradientColor=none;fillColor=#BC1356;strokeColor=none;dashed=0;verticalLabelPosition=bottom;verticalAlign=top;align=center;html=1;fontSize=12;fontStyle=0;aspect=fixed;pointerEvents=1;shape=mxgraph.aws4.event_event_based;labelBackgroundColor=#ffffff;" parent="1" vertex="1">
          <mxGeometry x="986" y="-716" width="78" height="78" as="geometry" />
        </mxCell>
        <mxCell id="UEzPUAAOIrF-is8g5C7q-161" value="Lambda&lt;br&gt;Function&lt;br&gt;" style="outlineConnect=0;fontColor=#232F3E;gradientColor=none;fillColor=#D05C17;strokeColor=none;dashed=0;verticalLabelPosition=bottom;verticalAlign=top;align=center;html=1;fontSize=12;fontStyle=0;aspect=fixed;pointerEvents=1;shape=mxgraph.aws4.lambda_function;labelBackgroundColor=#ffffff;" parent="1" vertex="1">
          <mxGeometry x="986" y="-584" width="78" height="78" as="geometry" />
        </mxCell>
        <mxCell id="xaocwswp1ZTlnGI3L1wZ-3" value="" style="sketch=0;points=[[0,0,0],[0.25,0,0],[0.5,0,0],[0.75,0,0],[1,0,0],[0,1,0],[0.25,1,0],[0.5,1,0],[0.75,1,0],[1,1,0],[0,0.25,0],[0,0.5,0],[0,0.75,0],[1,0.25,0],[1,0.5,0],[1,0.75,0]];outlineConnect=0;fontColor=#232F3E;fillColor=#01A88D;strokeColor=#ffffff;dashed=0;verticalLabelPosition=bottom;verticalAlign=top;align=center;html=1;fontSize=12;fontStyle=0;aspect=fixed;shape=mxgraph.aws4.resourceIcon;resIcon=mxgraph.aws4.desktop_and_app_streaming;" vertex="1" parent="1">
          <mxGeometry x="250" y="320" width="78" height="78" as="geometry" />
        </mxCell>
        <mxCell id="xaocwswp1ZTlnGI3L1wZ-4" value="User" style="sketch=0;outlineConnect=0;fontColor=#232F3E;gradientColor=none;strokeColor=#232F3E;fillColor=#ffffff;dashed=0;verticalLabelPosition=bottom;verticalAlign=top;align=center;html=1;fontSize=12;fontStyle=0;aspect=fixed;shape=mxgraph.aws4.resourceIcon;resIcon=mxgraph.aws4.user;" vertex="1" parent="1">
          <mxGeometry x="607" y="-81" width="60" height="60" as="geometry" />
        </mxCell>
        <mxCell id="xaocwswp1ZTlnGI3L1wZ-5" value="" style="outlineConnect=0;dashed=0;verticalLabelPosition=bottom;verticalAlign=top;align=center;html=1;shape=mxgraph.aws3.api_gateway;fillColor=#D9A741;gradientColor=none;" vertex="1" parent="1">
          <mxGeometry x="270" y="-90" width="76.5" height="93" as="geometry" />
        </mxCell>
        <mxCell id="xaocwswp1ZTlnGI3L1wZ-8" value="" style="sketch=0;outlineConnect=0;fontColor=#232F3E;gradientColor=none;fillColor=#232F3D;strokeColor=none;dashed=0;verticalLabelPosition=bottom;verticalAlign=top;align=center;html=1;fontSize=12;fontStyle=0;aspect=fixed;pointerEvents=1;shape=mxgraph.aws4.users;" vertex="1" parent="1">
          <mxGeometry x="77" y="321" width="78" height="78" as="geometry" />
        </mxCell>
        <mxCell id="xaocwswp1ZTlnGI3L1wZ-20" style="edgeStyle=orthogonalEdgeStyle;rounded=0;orthogonalLoop=1;jettySize=auto;html=1;entryX=0.001;entryY=0.556;entryDx=0;entryDy=0;entryPerimeter=0;startArrow=classic;startFill=1;" edge="1" parent="1" source="xaocwswp1ZTlnGI3L1wZ-8">
          <mxGeometry relative="1" as="geometry">
            <mxPoint x="250.18000000000006" y="360.20000000000005" as="targetPoint" />
          </mxGeometry>
        </mxCell>
        <mxCell id="xaocwswp1ZTlnGI3L1wZ-25" value="" style="sketch=0;html=1;dashed=0;whitespace=wrap;fillColor=#2875E2;strokeColor=#ffffff;points=[[0.005,0.63,0],[0.1,0.2,0],[0.9,0.2,0],[0.5,0,0],[0.995,0.63,0],[0.72,0.99,0],[0.5,1,0],[0.28,0.99,0]];verticalLabelPosition=bottom;align=center;verticalAlign=top;shape=mxgraph.kubernetes.icon;prIcon=api" vertex="1" parent="1">
          <mxGeometry x="91" width="50" height="48" as="geometry" />
        </mxCell>
        <mxCell id="xaocwswp1ZTlnGI3L1wZ-35" value="" style="rounded=0;whiteSpace=wrap;html=1;dashed=1;labelBackgroundColor=#ffffff;fillColor=none;gradientColor=none;container=1;pointerEvents=0;collapsible=0;recursiveResize=0;glass=0;shadow=0;" vertex="1" parent="1">
          <mxGeometry x="410" y="80" width="660" height="570" as="geometry" />
        </mxCell>
        <mxCell id="xaocwswp1ZTlnGI3L1wZ-1" value="" style="shape=mxgraph.gcp2.doubleRect;strokeColor=#dddddd;shadow=1;strokeWidth=1;rounded=1;absoluteArcSize=1;arcSize=2;" vertex="1" parent="xaocwswp1ZTlnGI3L1wZ-35">
          <mxGeometry x="43.5" y="50" width="138" height="68" as="geometry" />
        </mxCell>
        <mxCell id="xaocwswp1ZTlnGI3L1wZ-2" value="&lt;font color=&quot;#000000&quot;&gt;Name&lt;/font&gt;&lt;br&gt;Vision API" style="editableCssRules=.*;html=1;fontColor=#999999;shape=image;verticalLabelPosition=middle;labelBackgroundColor=#ffffff;verticalAlign=middle;labelPosition=right;align=left;spacingLeft=20;part=1;points=[];imageAspect=0;image=data:image/svg+xml,PHN2ZyB4bWxucz0iaHR0cDovL3d3dy53My5vcmcvMjAwMC9zdmciIHhtbG5zOnY9Imh0dHBzOi8vdmVjdGEuaW8vbmFubyIgd2lkdGg9IjIwIiBoZWlnaHQ9IjE2IiB2aWV3Qm94PSIwIDAgMjAgMTYiPiYjeGE7CTxzdHlsZSB0eXBlPSJ0ZXh0L2NzcyI+JiN4YTsJLnN0MHtmaWxsOiM2NjlkZjY7fSYjeGE7CS5zdDF7ZmlsbDojYWVjYmZhO30mI3hhOwkuc3Qye2ZpbGw6IzQyODVmNDt9JiN4YTsJPC9zdHlsZT4mI3hhOwk8ZyBjbGFzcz0ic3QwIj4mI3hhOwkJPHBhdGggZD0iTTEwIDE2TDAgOGg0bDYgNC45OXoiLz4mI3hhOwkJPHBhdGggZD0iTTIwIDhsLTEwIDh2LTMuMDFMMTYgOHoiLz4mI3hhOwk8L2c+JiN4YTsJPGcgY2xhc3M9InN0MSI+JiN4YTsJCTxwYXRoIGQ9Ik0xMCAzLjAxTDQgOEgwbDEwLTh6Ii8+JiN4YTsJCTxwYXRoIGQ9Ik0yMCA4TDEwIDB2My4wMUwxNiA4eiIvPiYjeGE7CTwvZz4mI3hhOwk8Y2lyY2xlIGNsYXNzPSJzdDIiIGN4PSIxMCIgY3k9IjgiIHI9IjIiLz4mI3hhOzwvc3ZnPg==;" vertex="1" parent="xaocwswp1ZTlnGI3L1wZ-1">
          <mxGeometry width="30" height="24" relative="1" as="geometry">
            <mxPoint x="15" y="18" as="offset" />
          </mxGeometry>
        </mxCell>
        <mxCell id="xaocwswp1ZTlnGI3L1wZ-6" value="" style="outlineConnect=0;dashed=0;verticalLabelPosition=bottom;verticalAlign=top;align=center;html=1;shape=mxgraph.aws3.rekognition;fillColor=#2E73B8;gradientColor=none;" vertex="1" parent="xaocwswp1ZTlnGI3L1wZ-35">
          <mxGeometry x="63.5" y="140" width="76.5" height="93" as="geometry" />
        </mxCell>
        <mxCell id="xaocwswp1ZTlnGI3L1wZ-37" value="" style="rounded=0;whiteSpace=wrap;html=1;labelBackgroundColor=#ffffff;fillColor=none;gradientColor=none;container=1;pointerEvents=0;collapsible=0;recursiveResize=0;" vertex="1" parent="xaocwswp1ZTlnGI3L1wZ-35">
          <mxGeometry x="110" y="370" width="296.5" height="154" as="geometry" />
        </mxCell>
        <mxCell id="xaocwswp1ZTlnGI3L1wZ-27" value="" style="sketch=0;aspect=fixed;pointerEvents=1;shadow=0;dashed=0;html=1;strokeColor=default;labelPosition=center;verticalLabelPosition=bottom;verticalAlign=top;align=center;fillColor=#bc1356;shape=mxgraph.mscae.general.graph;gradientColor=#f34482;" vertex="1" parent="xaocwswp1ZTlnGI3L1wZ-37">
          <mxGeometry x="210" y="42.5" width="50" height="50" as="geometry" />
        </mxCell>
        <mxCell id="xaocwswp1ZTlnGI3L1wZ-69" value="Yahoo finance" style="text;strokeColor=none;align=center;fillColor=none;html=1;verticalAlign=middle;whiteSpace=wrap;rounded=0;" vertex="1" parent="xaocwswp1ZTlnGI3L1wZ-37">
          <mxGeometry x="178" y="111.25" width="114" height="30" as="geometry" />
        </mxCell>
        <mxCell id="xaocwswp1ZTlnGI3L1wZ-73" value="Amazon&lt;br&gt;CloudWatch Event&lt;br&gt;" style="outlineConnect=0;fontColor=#ffffff;gradientColor=none;fillColor=#BC1356;strokeColor=none;dashed=0;verticalLabelPosition=bottom;verticalAlign=top;align=center;html=1;fontSize=12;fontStyle=0;aspect=fixed;pointerEvents=1;shape=mxgraph.aws4.event_time_based;labelBackgroundColor=#ffffff;" vertex="1" parent="xaocwswp1ZTlnGI3L1wZ-37">
          <mxGeometry x="40" y="30" width="78" height="78" as="geometry" />
        </mxCell>
        <mxCell id="xaocwswp1ZTlnGI3L1wZ-70" value="Bloomberg" style="text;strokeColor=none;align=center;fillColor=none;html=1;verticalAlign=middle;whiteSpace=wrap;rounded=0;" vertex="1" parent="xaocwswp1ZTlnGI3L1wZ-37">
          <mxGeometry x="30" y="111.25" width="114" height="30" as="geometry" />
        </mxCell>
        <mxCell id="xaocwswp1ZTlnGI3L1wZ-41" value="" style="rounded=0;whiteSpace=wrap;html=1;labelBackgroundColor=#ffffff;fillColor=none;gradientColor=none;container=1;pointerEvents=0;collapsible=0;recursiveResize=0;" vertex="1" parent="xaocwswp1ZTlnGI3L1wZ-35">
          <mxGeometry x="30" y="40" width="290" height="252.5" as="geometry" />
        </mxCell>
        <mxCell id="xaocwswp1ZTlnGI3L1wZ-22" value="Application" style="strokeColor=#36393d;shadow=1;strokeWidth=1;rounded=1;absoluteArcSize=1;arcSize=2;labelPosition=center;verticalLabelPosition=middle;align=center;verticalAlign=bottom;spacingLeft=0;fontSize=12;whiteSpace=wrap;spacingBottom=2;html=1;fillColor=#ffff88;" vertex="1" parent="xaocwswp1ZTlnGI3L1wZ-41">
          <mxGeometry x="186" y="100" width="70" height="85" as="geometry" />
        </mxCell>
        <mxCell id="xaocwswp1ZTlnGI3L1wZ-23" value="" style="sketch=0;dashed=0;connectable=0;html=1;fillColor=#757575;strokeColor=none;shape=mxgraph.gcp2.application;part=1;" vertex="1" parent="xaocwswp1ZTlnGI3L1wZ-22">
          <mxGeometry x="0.5" width="50" height="40" relative="1" as="geometry">
            <mxPoint x="-25" y="15" as="offset" />
          </mxGeometry>
        </mxCell>
        <mxCell id="xaocwswp1ZTlnGI3L1wZ-24" value="Inbuilt OCR implementation" style="text;strokeColor=none;align=center;fillColor=none;html=1;verticalAlign=middle;whiteSpace=wrap;rounded=0;" vertex="1" parent="xaocwswp1ZTlnGI3L1wZ-41">
          <mxGeometry x="186" y="200" width="74" height="30" as="geometry" />
        </mxCell>
        <mxCell id="xaocwswp1ZTlnGI3L1wZ-45" value="Amazon Recokgnition" style="text;strokeColor=none;align=center;fillColor=none;html=1;verticalAlign=middle;whiteSpace=wrap;rounded=0;" vertex="1" parent="xaocwswp1ZTlnGI3L1wZ-41">
          <mxGeometry x="45" y="200" width="60" height="30" as="geometry" />
        </mxCell>
        <mxCell id="xaocwswp1ZTlnGI3L1wZ-44" value="Google Vision" style="text;strokeColor=none;align=center;fillColor=none;html=1;verticalAlign=middle;whiteSpace=wrap;rounded=0;" vertex="1" parent="xaocwswp1ZTlnGI3L1wZ-41">
          <mxGeometry x="160" y="30" width="60" height="30" as="geometry" />
        </mxCell>
        <mxCell id="xaocwswp1ZTlnGI3L1wZ-48" value="" style="rounded=0;whiteSpace=wrap;html=1;labelBackgroundColor=#ffffff;fillColor=none;gradientColor=none;container=1;pointerEvents=0;collapsible=0;recursiveResize=0;" vertex="1" parent="xaocwswp1ZTlnGI3L1wZ-35">
          <mxGeometry x="490" y="40" width="148.75" height="250" as="geometry" />
        </mxCell>
        <mxCell id="xaocwswp1ZTlnGI3L1wZ-52" value="" style="shape=image;verticalLabelPosition=bottom;labelBackgroundColor=default;verticalAlign=top;aspect=fixed;imageAspect=0;image=data:image/png,iVBORw0KGgoAAAANSUhEUgAAAFoAAAAnCAYAAACPFF8dAAAGwElEQVRoBe2a+W9NTxTA/U20tAhaaqs1rQhKLEVjDUVjq6YJsTQaRfyG8BMJaSxtkFoSu6SEhCCW0FCi9pbazjefSWZy7nxv32v1veZq7kle7rx3Z7ufOXOWua9P3759Jf6kn0GfGHL6IcM4Bt1DOzoGHYPumS3dU6Yz1ugoaPTMmTPlypUr0t7eLn/+/PlnPz9//pT169e76OratWspf5ZXr17Jnj17ZPDgwW4cvVsSajSQmWRvkAMHDjgAp06dSssjff/+XdatW+fG6TRoGvYW6QnQsGK3aMC2nFCjMRe9RXoK9P3792PQVrvSZTpQygcPHkQTdFtbmzx79kyePHkiLS0txkl1dhex4969e2fa4owSSVc1+vfv30KfzOvt27eJug7cSylo61kzMzPl7t27gYHsl1WrVpmVzc7OFraTFhzsw4cPZcWKFdKvX7+ABgwfPly2bdsmL1++DDhiHthq5Ny5cw2AJUuWSEZGhvt93LhxcvbsWfnx44cb7uLFi8I8bVv/evToUVeXwpcvX+TYsWMyZsyYQJtJkybJmTNn5Nu3b4H6/pfIgAbyoUOHOgyDLIihQ4fKrVu33HNo0CzG6NGjAyBsu/79+5uFstFSV0CjuYsWLQosnu2XK32vXLnS7Dw3Ma8QGdBPnz4VQDHxrKwsWbt2rZw4cULq6upMHDphwgQZOHCgbNmyJfAIGjRt0eTx48fLpk2bTB+jRo1y4AcMGCDXr1837TEthKnUs9B27twply9fNp/Xr1+beuQKq1evdnWYw4IFC2Tr1q0ya9YsoU/bfseOHYJpCZPIgK6trTUTBhR205dfv37J7du3A9ufOj7ozZs3m23OPWw19rSoqMjB2L17d6DrZDb60aNHwi4C5ogRI+TmzZsOJrvj0qVLMmzYMHOfRX3//n2gf/slMqD37t1rJouGNDQ02PklvWrQ7AjA+HLnzh0HetmyZYHbyUBjq63GMkdf0OCKigpXB5MUJpEBTWhlH6ikpMRs6xcvXhjt7Gg78kAadGFhoYk2/AclasnJyTH9T58+PXA7GejKykrTDsd57ty5QFu+sGsOHz7s5r5r167/1eGHyIAmmvA9ugWPXSSiqK+vN6ZDJ0waNCaC6MCXT58+ycSJEw2MgoKCwO1koHFyzIM5kN2FycmTJ52jLC8vD6sSHdDY4AsXLggHVjo0s7Dtddq0aXLv3j33MBo0zunr16/uni0AevLkyQYYTlVLMtCEiow9aNAguXHjhm7qyhp0WVmZ+10XIqPRTApNBTiJCjFrVVWVlJaWmijCgua6fPlyc3JIGw2aRepIowFM265qNOPTLpFGEx1Z5SCKCZOUgrbeGXumY1098OLFi83EwxIWXU+XsdE4OWta8vPznXfXoLHRYdkaNtpGBjNmzNBdmwjHLmJYCk4Uw31AkvT4gnIcPHjQ1KGeH9XY+ikFTZbEYGR1rLIvACNEok5XQNt+7DbGsQEP0aD53c82qaNPzsg6tWjTQYjpy/Hjxx3E6upq/7YJ9fSZNnF4mKQUNMkEEPnMnj3bmAA7KGD0fR90c3Oz4EhOnz4t2FQtLBAhWl5enumb7W/raNCMu2HDBrcIaNvz589lypQpbl5+iHbkyBGX7pMkkaBoefz4sUuk2LHnz593dUi7ma89ehg7dqx8/PhRN3fllIImuyOrs7CHDBki8+fPN3aWYF6fX2jQnz9/Fpwc9zE71F2zZo3U1NSYT3FxsXFGtl+2sw35fND0MXLkSFm6dKksXLjQhXW0JUZvbGx0D08BE4f95T7mAadJ5odjRkhKtMbSx9SpU022yA7W5yXM184rMEiqwzsmtW/fvgBQC4crqbH1/ho0DgxtZ2F0fb/MIuIItR3WoDFLHCD57fjOeLxS8kGgwSwc5xW6nT5U+vDhg1EWnW7ruvS9ceNGQWE6kpRqNIMwcbQE02Eng8Zs375dOD8gAWCrAUXbU07WcHicIfgHQ7TnUIezCf+UTIO25oqH1juL+BrbSUQTJrwxwiTMmzdPcnNzzfywzVpaW1uNM8SZ2giD65w5c+Tq1avOnOg2upxy0LpzVpjDG3tipu8lKxMPv3nzxthbfbzpt9OgeWj7mo0r7cPCPb+PrnzH7tNnU1OTcGbeWUkr6M5Oojv1OgLdnT7T0TYGnQ6qIX3+1TtDG8OG9NfjP/0rGq1jeeu7uCZ8C45H/hu7m45V+BdA4y/+6n8dxKn79+93SUM6AHa2zyiDxnGSiPGuU0dBndZoXTEud+9PlwlNRwy3e3A1vxh0FP5NqlckLndPu2ONjjW6exoUtR34H6TDlHjH+nKFAAAAAElFTkSuQmCC;" vertex="1" parent="xaocwswp1ZTlnGI3L1wZ-48">
          <mxGeometry x="21.25" y="150" width="90" height="39" as="geometry" />
        </mxCell>
        <mxCell id="xaocwswp1ZTlnGI3L1wZ-54" value="" style="shape=image;verticalLabelPosition=bottom;labelBackgroundColor=default;verticalAlign=top;aspect=fixed;imageAspect=0;image=data:image/png,iVBORw0KGgoAAAANSUhEUgAAALwAAACZCAYAAACVKFAuAAAgAElEQVR4Ae1dB5QUVdp1XF3zgoJiQgQEREFdxcW4pl113XXVX1fXvIo5Z10FXRNMzuQgSB6GnDMIEiQzMOQchsxMd4XO9z/3va6ZntAzncNM9zl1qrv61auq9+776svfKUh8EiNQz0fAbrfD2E6p58+aeLzECJSDnaBPAD4BiAY1AgnAN6jpTjxsAvD1CQMuF+CwA3YrXO4NDhvgdABwheZJXU6IPsv7t8rfPB4HnwTg42CSfLpFlxPO0oOwrp0CbW5PqNPToE5Nhv7rENh3rYRLNwNcEEF8XHYL7AeKoS8bDm12rtzm9YLltwI4ju0OoufInZoAfOTGus4rHbb4D0iXVgbLqvEwD38fpt6PQs27BXreNbDktYUltw20vOthzr8Hpr5PQZ3yIxz7N7gpfp23IxvYrbDtWAZl0g8w9X8O5vz7oeXdCD23PSy57aHnXQstrxNM+Q/B9NOrUKelwl6yxcfOI98sAfjIj7nXK25XfGcLXDYLbJvmQyn8HGqf+2DNvQL27EZwZJ8FZ87v4cw53b2dAUf22bBnnw9L3rVQBjwJdUp3OE/s93of/IMsEd8MXCTKwMfFIrJlN4Ej+1w4c850X4PX4XYm7FnnwpbdDHredTD/9AK0eb3gOLy91mtE488E4KMx6l6uqTuBbzbp2GquHfgumw7L8pFQfnoSlpzWsGedB1fuaUBeEpB3ipctCc6cM2DLPB96bkcoBR/Buml+jXfi0stgXTcV6vBXoOd1gC3rAnFu7f2fAlfuqQL81qyLoPXqDLXwY1iL54KLM1Y+CcCHcSac5qOwbV0Ey8pC6IsGQZvXG9qcPMFj6wsHwLJ8FKzF8+A4tgcuCpcAFh6z44/zzThlQilydlir3Z1LK4X+62Ao/R6CNaMpXLmnewG4N+CfIkCpZ14O85D/VAO903wM+tKhUAc/AUvWZT4BvfoiSxJvFT27FdShzwm5wmUxV3uWaBxIAD7Uo+5ywnFoK6zrpkGfkwVtxPPQ+t4NLfd6aBltoKW1hJbeGlp2B2i9b4f285PQpn0Hy8oxsO9bh1JFQZc1Gs6eXIar51YBicspKXvPP8Oa2QTIO9VvsBvgdOX+Dnr6ZVCGdoF9f5EYBZdugmXFKCh973cvpt8F3D+vQ7bKmnUp1MFPwrpxFlxWLdSj7VN/hpU1YXjyabh8b+QsOywoujbla6i97oGa2lIA05FzlqDEfOVLtiBJsCDkfW2ZjaGlNYea1xna2PdhXTsRozbsQqsZJ9BpgRm71Qr2xrZ7Fcz5D4hzDOAGs+f9aBmtoU7oCseRnbAVz4Ey4J+wZl4Q1GLyvCeyWpbMS6EOfwm2nSvK32S+j2rwLROAD34MK/cgVIIlsCwZAqX3Q9DSW4hXuufE1/5d8td6+iVQ8u7EvulZeHhKEVK3KDDZpeaGi8k87A1Y0i8JiupWvQ9n7u+hZN0oBFll6EuwpF8MV25tsoB3Vqlq38Zvsl16Vkuo478QCytY9WjlwffvV4Kl8W+8qrd2OuAsLYE2OwPmrFthz/pDHcJjbYAh73sOlLR2GDjwO2zbuQVOuzQcafP7QEluKwRDA0ih2SfBltUIJ3/sBC21RRj6l8/Lt5ma1QH6gj7SJlB9JCNyJAH4YIbZ5RLqPWXcV1AzrhUqwbo0Gb6AlPy1ktYCpgFPw1GyWRiUSrP+5hYga1sw/v/HaxHoSkobt6bH/z58eSa2ITFQf3octh3LgzaCBTptCcAHOnIAqNFQJ/8ALevqkIPRlXcqLBmXwTzwWSgTvxMCr6/A8qcddfSm7h1A1saf8wJpS5lBz2gBbW4OXOrJIEY+8FMTgA9w7FwWBVQtqrk3CzYkFJS9Kogo8OkZrVCaehccOWeHAZBJ0FKbQ0u7LAg2zL83gj37PKj9HxLW2wCHPqjTGibgHVY4yw7BcWAj7HvWwL53LRyHd8DpK9Vx2GBdMxlq3weFBRNC++LfxFcFt7ffFCLNye1A1sNbm0CP00pa1r0DqEUKtA9/zxMsVGZrWBYPQDR08w0C8MJMXrJZGIBo+FEnfAO14D2hKtOGPQdu6sjXoBZ8LLQV2oJ+sG1ZCOqla/o4Dm6CVvCW0DGHA4ieIFJTWsKS0SwsFJh6cj2C1N14LlvmBdAK3oTjyI6ahjesx+o14OlYRUuntqAP1ML3oQ24H3peR1gym8OScZHQN9PUzo2GHEt6M6E+03p2gjbsGWjTU2BZMUYaZoSLLUBWxrL0Z2h5fxR+JMYkhmd/Kkw9rnGzTKF/g0hXgDMiRt2NMaKLg5p/myAq0nU5rBiv1Hm9BDx9Tcim6IsHQh3+IrSc62DJuBh24fhE4cy7ntkAgaBC6S2h9bkL2vhPYS2aDufJA3AcKIY6sovbOBN6EBqg4J76ayXlqoDcBzz7ib3vScJWYVk6WBCQSogMw4/6a3iimtB8DNaiGdAK34OadZ0wkQeugThV+oRkXAGl74PQ59MHPAtaTscIUHcC/jTx9uEijD3QBrfYrRkXQp/6NZylh8IA8cpd1k/A09p58gAsy0fA3PM+wZtSKAsFUAg46pCV9KthSu0EPe3ysOusQ3HfsdyH0Mn//AzsB4sjqpOvNywNtS7anByY028UlsPa2JZAgeCkmjD9EqE1Ic8fboE10PuMh/PIx5szboTlt9FwntgHl1WNCPDrBeA5WOqkb2FOpgEoNFTdO2hOhTWzqbiWJePCsJnivV8/OFYidvpNgpLcBie7dxbRWJa1k0E//HD72dQLwCuTf4A59boICnf0Pzkf5uS2bjdd70Jw7AAs9haKktIKVmrLsprClHYTzCM/gOPkwcoMeIh/xT3gLUuGwpzxJzhyzqxV+xJq4JGvJ1tDF2A6fIW6/4bQn5p6pdvv/jQ4ss+Ent0apgHPw7ZrZYhhXtFdXAPevmM5TPl/FyFu4eDZ6wIdtSg0+XNfV9vE/9XfMAxNJNCNuSM7yoARc/8nYVk1rgKlIfwWt4CnS64y8n1YMy4uH7AEqKqDKpbHhEJ/VZUriYeQkfo9DtvmBSGEuuwqLgFPIVWb20v4Vyeoa3yB3LcFSE/Ri6EMexX2vetCCvq4BLxt2xKYe94Pet75NoD1ERT1+5mEk5kIP+wmAmxChfq4Azz9Y9TxX8Ga3TzBynhNyVE/FgN5eiX7JuhLRwBOe8CYLykpgbHFHeCtW34RmbRouEhQ9/oBbO/zmCSSS5kH/BuOo7sCBrzniXEFeLr5KuO7wppD03798y/xPvH1Hdjen4+sjZ7TAfr83jJpqyd6A/geV4CnAGPu+0+RSCgBDu8gqW9jQzuHuf8TcIQgZ2VcAZ75Ci15Vyd8WOo57151wVITx6St+oJ+AdD0yqfEDeCdynEoI96GPbtxQlhtYICnYcqefQGUEe8EHfwdN4C3bVsMtf+DCXamwYFdsm7OnLPE/Nu2Lq5Msv38FTeA138ZBEv+tQkzfgMFPNkaS147YXAMxqMyLgDPJJzq+G4i/7jhd1GVz0v8ru9CLD1Um0AZ8zFoiwn0ExeAZzkVddjLIul+Atj1Hdjen4/FGNShz8NxeJtfeI+7ED/b9qXQBv3DncrO+4AkFkP9Hhvmz9EG/g3+8vFxB3jL6onQ+94agWim+g2YeCcITmYh7nMzLCvH+kXhPRvHBUuj/zIQlnzq3xN+5/EO2mDun1ZXS+5VYCblQD9xAXhtZiasOZfBVUs+mWAGMnFuvLzZkmDNagZ1WkqgeI+D0vNOB9RJ37tjR+NlYhL3GS4iwrBKZlN2uTPB+Yv8mKfwTLjJyhFMhxeuQUz0Gz8LlDhQJ3QDiyQH8ol5wDOjrzr205DVNUqAO37AXdNcMQWiOuFrUUe2fgJeOSHqfbL4V00DkDgW3wD2d/5YcE2d+K1/1cQ9VkbsU3jleALwDdSdoPpi8BBaXbLYmweWffoa84AXIX1jP0uwNAnQi6Afa25LUdjZJ3S7G8WX4cluEUJKQmhtWKxLdeousynrPa+DvnSYP3hHXACe4XzMPcMqduZRH4sMVTUNQuJYw1kIjGPW+90Na9FMvwDv2Tj2WBoC3XQU9t2roM1Oh3nQMyhNu8tdMDcRx9qQFzgrDmqDnwgqV00MAd4F2K2iyJgy+mOY0m6DlnqFyMuupzUXFahZESPgCe95GtD7TKD3WTVvvZjy7RT3f7VUzMtPAnqdIbd8Pxcg2/c+W14jwZP7PZf2rEZQRn8QVNRTzACewqm+ZBhMOX+Fntkczlym4SCgkkR5GS3t8uCincbfB2wcAGwfW/O2NkeCeFsBcGCh98kY2AxY+iWwKgX4uZX3djUBevAVwO6pwKbB/p1XU18N7Jj0o2kNbVZ2UCm1YwLwosDv9BQoubeImFXpJFaRglr4Qae2CC5L78QHJNAPLgYOrwK0w8DJrUDJUoDHin8CSOV3T5P/ewMUQbuxH7C9EBjRwT/gDmkJHPgF2Dbav/O83Yu/x0feAKzNAn5uE3dxwY7ss2DOuk3UxvXkyf39HnXAu7RSaLMyoOb+CQQ2K1BXZVtEeFfGhe6U2AEKaf0vAIZ3AEbdCMx+ATi+EdjQDxh3tzw27GqALEddgOeiYFuCvY+fabLLAV9Q7RmrPnNYfk99DCjdJp+ZrJm/CyZK7WVq8gtQlnwT1IIP4Dyx31+cl7ePKuBZbc+ydCiU/DvrSHmdJHzhQ5Z8acwtwOEVwG/fA1wInhNJwB9ZBfRrDMx9BVj0gQSI0YaAH38vMOWfQD+3fw+/j71TtvvlfWDcPQBlBp5TeAew+GNg/uuyjaDwXgDf51xg2hPAqJuA4e2Bea8Ciz4ExnSWi7H8Hs4ApjwMLP4IWPQRMPHBynIBn2/y34HRnYA5LwMzngRmPg1sHgrYVaB4ILDkC4DtZj0LzHym8hj8dLkkCrx345pR3DPlnpbaQsh0Wq9bYVlRWA5gf79ED/AuJ+z710Pp+4jbMSyCFKcuwJfuANZkAPsXAIeWS1aIIOekc4Es/wZYlweQYvPY+nxgyzBg5wTJsqzsIYVTgnLXVODwb8C+ecC2McDJzQDlhJoANOhSyVrxzVM8CNg7Czi6GtgxASj4kzyn5++BxZ/KN9H2McCuKXKb/q+KPue/Ke95y3Bg31xg62hgxQ/AvjmAwyKPbRkBTP4HsCpV/ua1jXviW48Lf+azFceM/yK+TxJGR5bvpJZGuAeP+zTgBKtRAzwL/KqTvxcV8SIemF0X4K2lwM5JwNKvgNWpkv0hwHv9HhjQTIKdoB3aVgKC37UjEshL/ispZv+mwN7ZwLENwLKuUtDdORGwnPAO+CFXArunA2U75AJa8jmwMhlQDwMb+sprUUO0srvcZj0H8I2yfz5AAA+4SLbhPaglwP55wIrvgYXvApRhCG6rCfjtW2D6E8DQNsCclwDtKDDlUXku2bSF7wGHfpPnRBzglVlWUndWCmExOS5IEebX/y+wbpztM3GPCcMT88yY028OTvMS6GTUBXiCd+L9EgA/NZeUee9MCShvgKcAzLeAwcqQnbBrkrJSNuh5OjDhr4B5X92AL1kCFN4u++p9jqS2FLIJRvY1uIVkYcgCjegIrM2WbxbKJxwTAt60WwK97x/kMR4nW6Mfk0BmPwyoIeiVA7IPthnSCtj8M7BjrLxOoGMckvOSYM1oAnNyGxjJc4W2JvsKaLPSfS5qHHXAk3c3D38LLE5b/hoNyQBVpg5e+64L8EfXVtxX/yZSBUlV5c+tvVN4annI+xrPQcGYKZ7JXxvHyAJRI+SNpTEo/JpMYCArm7if59fPAIfV/UZJAsh+jP2zBDDlELIfBxZJnp3nEPB7ZgAFnSv64PFqgD8F4IJgWy6yvo0k68TvfDOIReHjmBr3GsI9WRiCnR6S5WORd4qwzagjXoL9wEafqbzRMCosjX1/EUw9OkYvA3BdgKfa0pg48uwEVV2AX98LGCRfu+JcCrwEvCfo6tLSGIBfnQ5Q32/cA4VX8t4UZmk4W/a1pOCl26XWhW+kqoDfMR4Y9ceKPthXTYAni7TwHdnfpAeAKY8AR9YAUx+pfK5xLxHaUzOnprSCmtISrtzK8p1wMeh9KyxrJvmtk48K4LXpadDTPYSkCA1iOYAiAvguEvDj7qoADt8QB3/1gcJnVabwiz8BHDow8BL5lrGWSX36gAslhf71U98AP6MqS0PqnQQMaw+Y9wLrcoHVaVL2MATySM+N+3qW9GYw92jvJXFuEiwZl0KbnQ2XTTOIt0/7yAPeYcPJ9Aeiw7sbkxcJwNOy67QBFDx5XfL2E+6TBq+6WJqDi4Dh11YsFP5WDwHUnVODYjkJzHhKgpUs12/f+QZ4qir5Npj2eGV2hcIuBWq+MSirFPWp/L8xbhHck1d35novMk3vWW3ch3Ac2+MT0I1GEQe8fdcKlPW4IbqWvkgAnj4zlAUopFIrQlXlsfVSI1IX4O2K1LxQ/Vk8WGpWqGEh4AY3B0jhd00GZvwbIL9PodMXloYsjnJQqiGph5/kli8o/NJdgguUBrnZz1cstgiCvPwNXH7NyqyM5//MGa8NfhS2HcsNLPu0jzjg9aXDoaa2iO6Ajr5J6teXdaswHhmDTF06de/GbxqXlv9PApDakQFNpUZj6yip4WC7baOkLp4sh3Ee9+P/Ivsy75HGrFXJUgPCcz3bGd8NHp5gppbkRLHkrYXO3+23Q8MXjU3UChGcFFips6e+vVxL84XUw9OVwOibe2p5qGZVD0ren0YuHs//ndQKUR1LVwtqbjzPi8HvzpzTofW8GdZ1U30CutEo4oBXJnwr6nBGdUAJYqodyTbQkOM5obSYGipJHuf/VP2RRSHVppBHYFFt2MddRZDfqYakQOnZl7DK3iMpMY1QP18lBUm292xnfDcAT0c26s3JenAz3B5EO2ppLpHCJSk8VaHi/u6tWLzDrwHG3lHx2+ife9oOCHRaX6lyNf4z+HiqJHnfxvGY3Z8KPbMV9KVD/YpvjTjgy/q/KIwHsT+gUVDHGYCvqqUJN+hoUJv2f5KHX/BWHIBdzg1ruepzs+DSTQYBr3MfWcC7nDiZ8WD01JHhBk6w/Qv34WnSImpYTYPt05fz+cYr6g0cXllZWPbl3Ci2sWY0hT71azjLDtUJdKNBZAFPDU3K3XFDQSL+FqLOnypGsiqeFtJwg4qOchSQKcjmx0/+Tmpq9PHU1Ow28FzjvqioyP86rTZnYGkRPO+AhQ1KU/+cAHy4AdxA+rdlNYJe8Kpf1f0qUfgQYNoT39W+OzVTAvANBIyReDvas86DNuJ52PdvqIY1bwcqAd5bo1Add1lVlKYmWJpIgKEhXEMAfvizsO8r8hmiEQU84EJp7qNgYvuGMCGJZwyvpsuefS604c/Avm99rAIeMA15I1GrKcHWhITgxTxLw2WoTPhfIqlSAvAhAnyQQqvP74UgGlpWjIGa6g6NS0x8SCa+obJOzCitj3sPjiM7fUZkhHl4wHF0J8p63JgwPiUWe9CLXRiepnT1K7414oB3Oe0o6/kv2LP8THER7wChg9bQdsDcLtKnPd6fx+P+aQCKRsE5+szrczLrdC2IeoifNjtPpFxoUK9iOp3RgsoAbab18ABMvH/X0q4QuT/pshu5Z0mCntkC+q9DZKBNLUxN1AHvKNmCsow7Y1s9yaBr+o+PvQtg1BK9IemlSG/DkdcB9CE3QMsgDKbRYBwqPSbplsuYUwZrMLcLMxjQ45GpMuiPzmwIPE5nMfZBlwJxLZ5zFzDmVnmOEVPKWFlen1FIIv/NXUDBzbKN57ER1wF93R6c7JfekOyLffJ+GHFlBJkb9x6CvT3rXJh7tBPheIxDjUQWCqq2tfwbYV07uRaoV/8r4iyNcQvK2C+hpzNQ2buTfzmgQjAp/vWVJKP36Rcv4ka3u/O0PA2syZI5Zggk476Y8oK+60xoRGCW/CrPIzVn0AfdjZd+IaOdGGTBFBpH1wC/vCddcRlryphZ41ont8gkUMaiWvwhcGITsD4P4H8Mx+N+/lvSN5++8QwCYbqO8ffI++LCox8/feaZZ4dtuNA8F4Rx/yHYM0KJcQ7m5KvdFdPDO68yk/DDYJV2fz5RAzytY2XJnWoN4yoHVAgmxK++SN3pSMVUF6TWpLCkjv0uAGb/R4KHgdVisSbJqKPjRZJKr80FynYCo26Q2QWYko/OWTyXCZLYJzMaMB6VoBx9M7BnJrB5mJuKt5LJmAjwkddL8DJzGVN+KPvcFPtuQD8CODTg0DKZ/oOZzbgQVvwow/Poc8+FxwwGfJMMvUo+B2WJsI1nkohVLut+bdhDOG1ZjaEVvg3Hke3+4D16dVpZdlCbkw0lxc8MvGGbLA+rIP3DCRzmYSTYGUtq5HEZc5ukpAx2pkcj2RUmbWJGYLIQTIhEyk42x/M8BlUwcZLg4ZkRgBQwSabCK1nmjjP9nbzOpL9Jis64VfL+BLzNJAM9CFguIGYn48JimB7ZFAZwMEkrs40xDJABK3xDLXgbYG4b3r/BIoVxDEnp9bRLYRIB2OHzvLRkNIM2Mx10V/HnEzUKD5cLzmN7YP7pOVDaDh/V8QCyrxNNYDA/pKVUUtBfP5fA5vnk09f3lGn1SL3JH9OPfN5rMiJq+pMy4JqZu5hOg1FSPI/AZeq6qkIr2RqG1jH+len4uB1ZDdgUgPloyNYQ8Azi5puHfTFUj9nH+BYwMhiTijPUjyGKBD/DDZlir2w3wJBCsmDG+b6OQ4DtmEZD5IJMuyIsLCuzkem9OsGyalx8pOkoX5EOG2ybF8Cce1/sWV+ZlIgUlmAh/8vQNyY1JWiYiu7oOpmujmBk8lXyzlwoFECnPipjSst2Sd6fbJFXwH8g800SwEx8yo2qy/lvABRCeT0B+JIKokDAM1fO8WIJbgJz8JUy/z3fNiJ08TQZikg+nvfH5LEL3vQ/43FAoE8C/VyYV4a68lATM+FSMPQZUTyjHEs+fokehXffoEs3g9ZXpe9DbtUW40LDK/D4NgFJkrpS+0I++NBSKfQRAEyZx/wyLIrABbGtUOrYDXCQqvM8Un2mxSDoGBvLdNVVKTyTIFGA5eIie1S+NZGLhGMRCOB5L2R1GHjO5EpMw8HMxVUDzY17DvGerA0zyzGRkpEmz7dxr/2NzAzSlqzLoU3vDqZa9/cTdcDTg9KlnhRps8159wmqwMSZkVJv1TgJBAo1KwQfAceMXxQAmV2MwBh0mWQfjqyU1J8sD98I/I88tUijnSTZGSYq3TxEUn8KktSmcCEYAKNunuwMky0ZQeH8j/0ZKsRAAM9AblJ6yg7sZ026FJgZRmhcO8x7Z86ZoI5eJkINDRETffa5U6ojA6jVGgOAB0DWZstCEPBaanORLVYTdZ2aibyCfD2SSlD3SsoR9gkj+8E8MGQb5r0uBViyBOS3CRICiCmrmeDUvF/majcEQvL35N0JalJv/YTMDc/zqIsv3SpzyvB/8tUs0kANDfM7UjPE4wyk5ncjhXUggKdxi28gpvQge0SVJVNrRzJWNu9UiFLxKa3cBKx26l33vCbBln0h1DHvwnG09rA+T8ofdcOT583wu9N0BNqU/0FPv0z42NBip6ddDjWltUyVnHa5YHco3DKsK2SFEbxROPLN5KOZn3HLSJkaj5kECFjjHOZePFYkhUzPHI4sYMC87dSWsCwOtTcGyLgnr07gsTgB2Rhei1oZJmNle563tUCeZximmKpj64iKa5NqU7VJTY2RwJW5KHltsk+k4sy9w/I27ItsF2tbsZ8Ip+AQAqwgXsHbXISw2vMmUQsMTkdVGHn9HVuAF9R9AZTMTnBke+ZDYdWP00VlEAKdUj/5QfKFEaHyVP8ROPR/oTWzqsGGVlRmAiYVNQBtUH+qBbk4mIfGMB7xP6opqcqktZZ9Gv8JYbeJTIDE84ZQ59+4Qo1IHT77MhabaN9U6td7ut94XDjUIJHd4ne2Nc7jM/C/qARoM+X1hcJDNrjAH1L3plBHvA7Hoa1ewV3XH1FnaZzKCajjPos91aQBrpr2ZGkWvCOtmFRDxoSQHSy7EL7z7dnnCCtsMNXUybur+Z0ldXc568K11//9BjxzF9jsTqgWB+xOF5jNIJjgb+ex3TBn3i5qOJVTsJpAVscxV14S7HmnwZZ3Oqz0s8g5A47c6gXSgrlG+blkH8ir75okrat13Fv5eQ20nTBGpV8CPe2yireUH2Mhi5pdDPOoDwPSzHii32/AqxY7+s3Yhr9/twCF649g6E4z1p2wwuIIII2H3QrrqkKoqa0DGghPIJ3Ib4wZ/e5D/77PIe+bJ/HYO8lY1uOaoPv1vEb5d6odqQUh+1E1vZ4fE1neXwM4x5rZRGhsXLVkBPY2HqzuaOr9CGw7loFavWA+fgPepNnQffR63P75THw2ew+umnwQHacdxL3zjiKl2IS9qr36/bhcONR9LHY+loKdD/eo2P7+I7bf/ha2d3wIO6+/1+u2+5Y7oXxyIVAlMT4HaHHfzvi/kSNw86gFaDd6JToPn4uvvn4L976Zizk/uEvAhBpQ5MXJJwteOTTqNm+TXV+OC2NRWnN3tUbf2SdWX1dyboPlt9Fw2SzVseXnkToBv37XCbzVewVezV+OV3KX4sWsJbjzsxm49bMZeGf6TjQasw+Nx+xF08J9aD/lAF797TjWnLBVug37kTJsveMrrLvwP1jb9EWsveg/KL7hI2y46i2sbfws1jV5GhvbvILijm9hY7tXsf7CZ7C+6dPYcNUrKGr+IoqaPImj/74azvTK2Q56DnoVd46cgYsLtqBxwW40GrMX7UasxOfd3kH7LsPxz3eS0eXD/+KVj/6L1z76LwZ9/Q8czXTry0O9CBL91fo2ldqay/2yvIoqIBnXQpv2I1i8OhSfOgE/efk+XPPWFLR9bSLavDYBV706AS1fHotbPp2Od6YR8HvRqGCP3MbsQYuJ+/H52pPY40HprfuOofja97H6nKfFtvm+biidtgqHsyaJ3+uvfB0lqSqY0BYAAA+fSURBVONQOmUFTo5bipIehdjxeAoO/jAGO5/NxrpGz+PQox3gSK3I9Ev2pfPIuTh/jPva4h72ou2Ilfik6/to8VIhWr1cgDZd5Na2SwHe+/hDbE+LYuWRBrwoWHCaVV+Manx1vbmcOadBS28DdWJXOA5vC5qVMRZLnYDfvK8U6eOKkTymSGzfjliHh7+di1s/nVEd8G7gXz/tINI3lWHKfg1TD2iYtfoAVl79rgD3qjOfwqHsSbDsPAjLtgMoavc2iq5+B2WzVsO8eCMO95kG89JNOJQxAaXTV+FAt5FY3/h5LP7XPzE95wFM7Xc/pvR7AE8OG4wmBTsrFpsb8G1GrMJHX32I618Zgtc/+ATJXzwntpT/PoeJ392B41keVe0aMADrAlw4/hcheWmX16lWdlAjk9YK6sRuMqtYABZVA+BV93UC3uVy4aRixTGTRWy7D5vx5ZDVuPWzmV4Bf0HhXtw84yAenH8Yf5t/GM+M34r5rd8WgF/T+HloG/fgcM9J0Dfvw66XcwXoS2ethmn+ehzKmQRl2WYcyppYDvh1jZ5D1nPf4fEBI/C34YV4cFghLivYVAXspPR70Wb4Knz41Yf48xs9MfZ/d+JY1h/Edpxp2XJ+D1cC5LWyHuEAutEnHcloQffuW5MkDIta1tVQJ30L+8FNVfEa0O+ADE+UjbmVaTZ8N3JtrYBvXLAHzSfsR9vJB9Fu8kHcPnwzZreUgN/U+TO47A6UZI0XgD8+bAE2tH8XZXPWQt+8H8dHLhLUfdcreSidISk8Ad/txTx0GvyrEEzbjF5dA3WvDPh73sjDrO87icklyBNA911QNAAa6r2oy5Ta3B0RVfl+qGe3ZTaB2vd+UbDaWXowIHDXdJJfgD9usmDF1mNYuvkIlm0+innrS/BWr2VSaK3Kw7tZGoL92SXH0G19Gb5ZX4bU+XuwpM07WH3Wv7G/23DYT5hRNmst1NU7BLXffPdXKJ2+EsdH/IKitm9jbbOXsOm2L1A6c3U5SzP66TfxY+8v8M3gL/Hl4G9w06iFOJ+Cqvuacl9B4W99rS/yv3pMqCaX9rhG7LelXQY9p0IOCPWEJvqrDOKq42HP+oNwGakI9qY1/QyRiU7PuQbmQc/BsmwkXBb/gjpqArm3Y3WyNNNX7kfHd6ag7asTxNZGCK3jcIsXHr5J4V7836KjWHuyQlNDoXXjte+D/PvxUYtwbOh8rLnwBWx54BuoK7eD1PzYkHko6T4Wq856SrA+xZ0+wbFhC7D3/UFY17i60Jo5+G20KNjgFfAt/lOI1i+PRtsuo8TWrssofPjJe9jpLmFedTISv2sHayjGR6gmU5uDCZQIdOrXtZyOMOU/BPPYL+E4usvvgA5vwPZ2vE7AU+Ds+O5UtH9zinubjNavEPDVtTRNCvfhxhmHMH6fBk87lG3/cRR3/BCrz30GxZ0+xfqWr7v5+edQfNOngqpvuOY9FLV5G6vPlpqcNU1exIZr38f6lm9g3XnP4NBjlbU0ev4ZeHr4IDQbs80D9BUU/sqXxqBNl1Fo/4p7e3UUPvn0XewWgePhn9xQAKS+9cHsBkrKVTCl3oCytFtQmnk/tNk5MnOYH85g3sDsy/E6AW+zu7D3qAoKq9w27DmJTwaurMzDj9mLC8YdwGOLjuGXI5ZqVleXxY4djyYL9eLa857FunOfxbpznhFb+e/znsVaj+Pif3fboqZP4GSXFnBlV3YVKO3ZCLmD3sBFhTvRaOz+SkLrHa/3xrCv/yoATpDvSW+Gk3QzzqvcR30DVSw/D2Mc1LxboM3tCcfBjXCZjwJ2CxCEb4wvIPdsUyfg2djhdJVvpYoVyYUbcMcXs5H6yz68ufIE8reasfCIBbtVB3RP0m5cyQVY9x6FXrQH2nr3tm4nTIVDcOKjDtC+PL/WTe/WCI60ykYnTiz9Z0p7/gHr+1yLCf0fQtfBXfHGT5no2vVN3PtWPub+cJPwp6FPDTe2j2VA1Pd7I+8uaqtuWyJiICIJdAOKPgHeaMy93eHClv1lmLn6IHaf0LFDseOIxSmAXqsTGXWpTidcDvdmd8C+cwXM3dvDlZNU61aTS4EnOBx5v4Mp/1zs63UZtvVsieK0lpj9w804lrCqxtQCJ0ujDXsa9r3rPCEV0e9+A16Cnt6SdlBHH8zHeWI/TGmd6zREeILbl+92JgVihFSCoscU4Bm8oxW8BkdJ4P7sweCN5wYE+GAvapzPWFbzwKf9dijyBfSJNrEnmFszL4A28XOQ0EXrE13AWzXoc7ID9pNOgDr2QF3bnFgyLoI2MxUurSxaeI8uhWdcon3HUigZzBcfgeDshFtB1Fgc4TyW1Qr64sF+lYoPxcooKSnxv05rKC5cUx/OssNQhjwvfChqow6J/+KLmledL+Ee3Oc2WNdPqwkGETsWVZaGT8ncgJalQ6FmtAt/NoIEhY8ahZfZwp6CffeqiIG7pgtFHfC8KZYOVwY9BWaErUoZEr/jm7Ib82fNbAptUlc4TUdrwmHEjsUE4JlJ2LpmApTktlEpnWJMSmIfnsXFyCU9pz30xUMialWtaRXFBOBFJuET+4XDv5Z6RUKArWesF9kZ9efAkp/WBNpgjsUG4PkEDhvse1ZDHfkaqL5K5HoJD7WN9FuM2jdLzpVSHWkxB4PVkJwbO4AXAqwGW/FsqD/9S4A+GpXhIg2I+n49R/ZZ0AY8AGvx3JDFpQaD/JgCPB/EpZYK1ZU67AXoGVf4XTqF+t76DqJQPB+JCVmNUPTlrQ9Sd2v2ZVDHfwGqn2PhE3OAF6C3KLBtmg+t8H3oeTeI1A4yDrK6tyMHlU5JzF/IMijhnkRvkxtvx5mRmZmaw3ffLIpwDtS+f4G1aEbYAztqW0x+hfjV1lFY/6MVdn8RtNnZUIa9BD2/I6yZF4r0y3RCIrAZMmZJvxB6WnNRK4oVJxhNE75JrB98NcfHIooVBJ/xzdtYG5oZbUZa0OnxgsVZfADeeEqHFfZ966BOTYb559dhHvwilIFPQO3/d6gDH0Vp6p3CF4eZh8OeRrseaU9Ejpi0y8NEHGSmX2Xoy7AfKDZmMib2McnS1DgyLhdcNh1O81GRq8S2bYnQ6piHfwCr0OrUH+rrjWqG8riayvpL1IaFetySRKyq0vNeWJaPjiorUxOO4gfwNd09A1JY77UH03FU5+9DP5mhBkf0+ivr3gH2rNCXiqesZc68BdrMLLgcFYH8XqYv4ofjHvAME1PGfJ5wMfaLUp+K0h9IJEKr0aICwZx2I7SZGYBViziYfblg/AOeNqsjO2BKuy1EdYSiR3Uj9UYiFS7r3jGkgKe+3ZTyR2hzc+FSjvuCvai0qReAp5VW/6U/lOSrEoKrD5SeudpLM/8Cc/LVCKYqBxcoFQVMn2dKuwmWFQVwlpXEhIHJ22qqH4CHC47je6AMey1qpXOsGU2CrmISKQpPgVVb0A/WFQVQev1VFI6TwPddDqLakclRWXhOK/xAGAud6glvOIuZ4/UE8CwFaIeteC6U3vdHxc1YS7tclNiMddUo+eyylE6i7KPLqsG6bhr0eblQf3oMdNyjupLgZ65HtjUWIb8zzQYNfCxdo2a2g1bwJvSF/WDfuxZw1FAII2ZgXnEj9QfwfJFazNAX9Yea+ycxOcZkRWIvK9W1iHkqb89qBNOgFwC7VaLA5QIpM62h6ox0aJO6QRv2DPTet0DPbiNzumdcKr/3vxva6NegTfkO2tx82HetFAE8FXCKzW/xZXjycwxFzdep30PLua7GLLXhAj8pojm5DWiyj2UVKa3R+pIa/NJp57Bbhc+Lbcsv0BcNgjotFcr4r6GM/0Z8Z6JT+541Uih1xgdFJ3zqNeDpW88IKrXwE2jZ19SSizzU2pgkaGktYEm/tBIrEK4FFki/ztzfw5T5Z6HV8r04mJEo3U/KE6PN6xVLUz7GBP2hrVBGvQ8t+1o36H0XyAIBE88hdafmQzq6hXpBBd8f+XN1wlcg795QP/UT8JxN8qbH94rk+kr6NXDknB12VoOuyWRrrJnnh/1a/i5KalVMyX+Ebc/qqIfZRXOx1V/AC9A7RdAwBayy1M7uCnLhofTUzqipLXCy+59gTm4fc2wNqbtS8CFY+bwhf+o34A3QKydg3TgLyuDnoYRcsEwSC8nU4xpoE7uKNBTm4W/DknlJzFB5vt3M2XfAvntlxJMgxdriqv+AFyPuEipLx4GN0Bf2gbnX/VBSWsOW2Shgy6yThpeMi2BObgvl5xdgXT0ezmO7haaDsbmmjDsiqiXyxuJQf66mtIQ2OwvM5dnQPw0E8O5pdjrhLC2BbfNCWBb1gTrwEShp7aCltoC0lFbPQV8BpCQ4cs4SUVVq6pVQMq+DNvp1WJYNFZRT5Et0Z1Nm2hFtTh7UtKuiTuVZOU8d8aos/xihKhuxvKgaFuCNmXA6hF+9ddM8oZPW52VDH/UytNwbhLVRS7tC+IfQR0RuV0BLbwWt953Qxn0AfX4+LMtHSsMLE4PWkDbceWwPzCPedBfiDY/cULEYa9bgMCJM6XUPrOsmN2jNjDHt3DdMwHuOgMMqDCm2HcugL/oJ2qws4d7K0LTybWaGoNj68tHC/96llQpXBs9uqn93wbZtMcyDngazbtUFzlD/z/IyWl4nkZ05VgKoq49RZI7Ub8NTsGPoYoUSG1w2i9xYg4h+IjVQ8Tov5XIJpypzn4dBk36kLLCsZK3ldBBuAo6jO2Pae7HOMQxBgwTgQzCIPnfhdEBfPgpK7wdE0Dn14aGm5hX9Uc44E3peR2FpdhzY0ODBXnWeEixN1REJx2+7FZaV42DKfQDWrGZhyZ9JOwC9GdXsjlAnfAPHoW2BvZXC8fwx1GcC8JGaDKYd2bMaZb0eg5bRyq0ODY0wS7DbsxvDlNEZ6rQU0IEu8al5BBKAr3lcwnPU6YDj8DYohZ/B1KODyLFTwY7UrGmp63/67dAD0pT/CCwrx0p33UDkjfA8ccz1mgB8pKfEYYez7BCs66bA3P9J0EJLA5ZnsEVdIKfwSy0MrcamzDugzUgGhVOXRUnw7HXMZwLwdQxQWP6m77lugv3ARljXjIc66k2Y02+EOZlGsCtE5BQB7cw5XSwE+toz05qedonIoW9OuQZKr/uh/9IX9l0r4Dx5sEE7hPkzRwnA+zNaoW5rAH9/EawbZsC6cgz0uZnQRnWB2vd+qLmdoWTeALXXXVAHPw59SldYfhsJ69pJsG1dLN4ULAyX+Pg+AgnA+z5W4W3pcsBl0+A8eQC2XStg3TALltUTBV/OuFO6Q9DHX7AtcRI/Gt4BC6z3BOADG7fEWXE6AgnAx+nEJW7b9xGIqTqtvt92omViBIIfgf8HVH+EuBFttQYAAAAASUVORK5CYII=;" vertex="1" parent="xaocwswp1ZTlnGI3L1wZ-48">
          <mxGeometry x="21.25" y="30" width="86.01" height="70" as="geometry" />
        </mxCell>
        <mxCell id="xaocwswp1ZTlnGI3L1wZ-77" value="Govt" style="text;strokeColor=none;align=center;fillColor=none;html=1;verticalAlign=middle;whiteSpace=wrap;rounded=0;" vertex="1" parent="xaocwswp1ZTlnGI3L1wZ-48">
          <mxGeometry x="9.25" y="200" width="114" height="30" as="geometry" />
        </mxCell>
        <mxCell id="xaocwswp1ZTlnGI3L1wZ-56" value="Trade mark APIs" style="text;strokeColor=none;align=center;fillColor=none;html=1;verticalAlign=middle;whiteSpace=wrap;rounded=0;" vertex="1" parent="xaocwswp1ZTlnGI3L1wZ-35">
          <mxGeometry x="507.38" y="310" width="114" height="30" as="geometry" />
        </mxCell>
        <mxCell id="xaocwswp1ZTlnGI3L1wZ-67" style="edgeStyle=orthogonalEdgeStyle;rounded=0;orthogonalLoop=1;jettySize=auto;html=1;exitX=0.5;exitY=1;exitDx=0;exitDy=0;entryX=0.217;entryY=-0.018;entryDx=0;entryDy=0;entryPerimeter=0;" edge="1" parent="xaocwswp1ZTlnGI3L1wZ-35" source="xaocwswp1ZTlnGI3L1wZ-41" target="xaocwswp1ZTlnGI3L1wZ-37">
          <mxGeometry relative="1" as="geometry" />
        </mxCell>
        <mxCell id="xaocwswp1ZTlnGI3L1wZ-68" style="edgeStyle=orthogonalEdgeStyle;rounded=0;orthogonalLoop=1;jettySize=auto;html=1;exitX=0.5;exitY=1;exitDx=0;exitDy=0;entryX=1.001;entryY=0.432;entryDx=0;entryDy=0;entryPerimeter=0;" edge="1" parent="xaocwswp1ZTlnGI3L1wZ-35" source="xaocwswp1ZTlnGI3L1wZ-48" target="xaocwswp1ZTlnGI3L1wZ-37">
          <mxGeometry relative="1" as="geometry" />
        </mxCell>
        <mxCell id="xaocwswp1ZTlnGI3L1wZ-46" value="Market data APIs" style="text;strokeColor=none;align=center;fillColor=none;html=1;verticalAlign=middle;whiteSpace=wrap;rounded=0;" vertex="1" parent="xaocwswp1ZTlnGI3L1wZ-35">
          <mxGeometry x="206" y="340" width="114" height="30" as="geometry" />
        </mxCell>
        <mxCell id="xaocwswp1ZTlnGI3L1wZ-71" style="edgeStyle=orthogonalEdgeStyle;rounded=0;orthogonalLoop=1;jettySize=auto;html=1;exitX=1;exitY=0.5;exitDx=0;exitDy=0;entryX=-0.001;entryY=0.468;entryDx=0;entryDy=0;entryPerimeter=0;" edge="1" parent="xaocwswp1ZTlnGI3L1wZ-35" source="xaocwswp1ZTlnGI3L1wZ-41" target="xaocwswp1ZTlnGI3L1wZ-48">
          <mxGeometry relative="1" as="geometry" />
        </mxCell>
        <mxCell id="xaocwswp1ZTlnGI3L1wZ-40" value="" style="rounded=0;whiteSpace=wrap;html=1;dashed=1;labelBackgroundColor=#ffffff;fillColor=none;gradientColor=none;container=1;pointerEvents=0;collapsible=0;recursiveResize=0;" vertex="1" parent="1">
          <mxGeometry x="731" y="-334" width="185" height="310" as="geometry" />
        </mxCell>
        <mxCell id="xaocwswp1ZTlnGI3L1wZ-57" value="" style="rounded=0;whiteSpace=wrap;html=1;dashed=1;labelBackgroundColor=#ffffff;fillColor=none;gradientColor=none;container=1;pointerEvents=0;collapsible=0;recursiveResize=0;" vertex="1" parent="1">
          <mxGeometry x="141" y="-654" width="180" height="450" as="geometry" />
        </mxCell>
        <mxCell id="xaocwswp1ZTlnGI3L1wZ-58" value="Mobile client" style="sketch=0;outlineConnect=0;strokeColor=#36393d;fillColor=#cce5ff;dashed=0;verticalLabelPosition=bottom;verticalAlign=top;align=center;html=1;fontSize=12;fontStyle=0;aspect=fixed;shape=mxgraph.aws4.resourceIcon;resIcon=mxgraph.aws4.mobile_client;" vertex="1" parent="xaocwswp1ZTlnGI3L1wZ-57">
          <mxGeometry x="62" y="30" width="60" height="60" as="geometry" />
        </mxCell>
        <mxCell id="xaocwswp1ZTlnGI3L1wZ-59" value="" style="sketch=0;pointerEvents=1;shadow=0;dashed=0;html=1;strokeColor=none;fillColor=#434445;aspect=fixed;labelPosition=center;verticalLabelPosition=bottom;verticalAlign=top;align=center;outlineConnect=0;shape=mxgraph.vvd.web_browser;" vertex="1" parent="xaocwswp1ZTlnGI3L1wZ-57">
          <mxGeometry x="62" y="170" width="70.42" height="50" as="geometry" />
        </mxCell>
        <mxCell id="xaocwswp1ZTlnGI3L1wZ-60" value="" style="image;aspect=fixed;perimeter=ellipsePerimeter;html=1;align=center;shadow=0;dashed=0;spacingTop=3;image=img/lib/active_directory/windows_server.svg;" vertex="1" parent="xaocwswp1ZTlnGI3L1wZ-57">
          <mxGeometry x="70.80000000000001" y="304" width="49.2" height="60" as="geometry" />
        </mxCell>
        <mxCell id="xaocwswp1ZTlnGI3L1wZ-61" value="browser" style="text;strokeColor=none;align=center;fillColor=none;html=1;verticalAlign=middle;whiteSpace=wrap;rounded=0;" vertex="1" parent="xaocwswp1ZTlnGI3L1wZ-57">
          <mxGeometry x="67.21000000000004" y="230" width="60" height="30" as="geometry" />
        </mxCell>
        <mxCell id="xaocwswp1ZTlnGI3L1wZ-62" value="Servers" style="text;strokeColor=none;align=center;fillColor=none;html=1;verticalAlign=middle;whiteSpace=wrap;rounded=0;" vertex="1" parent="xaocwswp1ZTlnGI3L1wZ-57">
          <mxGeometry x="70.8" y="370" width="60" height="30" as="geometry" />
        </mxCell>
        <mxCell id="xaocwswp1ZTlnGI3L1wZ-63" style="edgeStyle=orthogonalEdgeStyle;rounded=0;orthogonalLoop=1;jettySize=auto;html=1;exitX=1;exitY=0;exitDx=0;exitDy=0;entryX=0.75;entryY=0;entryDx=0;entryDy=0;" edge="1" parent="xaocwswp1ZTlnGI3L1wZ-57" source="xaocwswp1ZTlnGI3L1wZ-60" target="xaocwswp1ZTlnGI3L1wZ-60">
          <mxGeometry relative="1" as="geometry" />
        </mxCell>
        <mxCell id="xaocwswp1ZTlnGI3L1wZ-64" value="mobile, browser or server" style="text;strokeColor=none;align=center;fillColor=none;html=1;verticalAlign=middle;whiteSpace=wrap;rounded=0;" vertex="1" parent="1">
          <mxGeometry x="244" y="420" width="84" height="40" as="geometry" />
        </mxCell>
        <mxCell id="xaocwswp1ZTlnGI3L1wZ-72" style="edgeStyle=orthogonalEdgeStyle;rounded=0;orthogonalLoop=1;jettySize=auto;html=1;exitX=0;exitY=0.5;exitDx=0;exitDy=0;entryX=1;entryY=0.5;entryDx=0;entryDy=0;entryPerimeter=0;" edge="1" parent="1" source="xaocwswp1ZTlnGI3L1wZ-37" target="xaocwswp1ZTlnGI3L1wZ-3">
          <mxGeometry relative="1" as="geometry" />
        </mxCell>
      </root>
    </mxGraphModel>
  </diagram>
</mxfile>
